# xmcd
#
# Track frame offsets: 
#        150
#        14108
#        26082
#        39417
#        51599
#        61006
#        73993
#        84584
#        95842
#        107676
#        118696
#        131088
#        144315
#        156534
#        168152
#        177472
#        189885
#        200906
#        212390
#        227579
#        239580
#        256540
#        267092
#        277719
#
# Disc length: 3826 seconds
#
# Revision: 1
# Processed by: cddbd v1.5.2PL0 Copyright (c) Steve Scherf et al.
# Submitted via: ExactAudioCopyFreeDBPlugin 1.0
#
DISCID=5d0ef018
DTITLE=Various Artist - Hall of FAME, Volume 2:  Rare and Unissued Ge
DTITLE=ms from the Fame Vaults
DYEAR=2013
DGENRE=Soul
TTITLE0=(unknown female vocalist) - Another Good Woman Gone Bad
TTITLE1=James Barnett - It Tears Me Up
TTITLE2=Ben and Spence - Long Ago
TTITLE3=June Conquest - Don't Let It Be Said
TTITLE4=George Jackson - Take Me Back
TTITLE5=(unknown male vocalist) - Don't Count Me Out
TTITLE6=Big Ben Atkins - I Can't Stop (No No No)
TTITLE7=Billy Young - Have Pity on Me
TTITLE8=George Jackson - I Smell a Rat
TTITLE9=Ralph ''Soul'' Jackson - Don't Tear Yourself Down
TTITLE10=Linda Carr - Are You Teasing Me
TTITLE11=Ben and Spence - No One Left to Come Home To
TTITLE12=Prince Phillip - Fool For a Woman
TTITLE13=Unknown Male - Got to Get Over
TTITLE14=Clarence Carter - Take It All Off
TTITLE15=Marjorie Ingram - I'm Gonna Start Checking Up on My Man
TTITLE16=Prince Phillip - How Much More Can a Poor Man Stand
TTITLE17=(unknown female vocalist) - My Dreams Don't Ever Come True
TTITLE18=George Soule - Midnight Affair
TTITLE19=Otis Clay - That Kind of Lovin'
TTITLE20=Clarence Carter - They're Gonna Find Us (At the Dark End of t
TTITLE20=he Street)
TTITLE21=O.B. McClinton - You Can't Miss What You Can't Measure
TTITLE22=Joe Simon - Get in a Hurry
TTITLE23=Jackie - Unfortunately
EXTD=
EXTT0=
EXTT1=
EXTT2=
EXTT3=
EXTT4=
EXTT5=
EXTT6=
EXTT7=
EXTT8=
EXTT9=
EXTT10=
EXTT11=
EXTT12=
EXTT13=
EXTT14=
EXTT15=
EXTT16=
EXTT17=
EXTT18=
EXTT19=
EXTT20=
EXTT21=
EXTT22=
EXTT23=
PLAYORDER=
